<svg width="518" height="520" viewBox="0 0 518 520" fill="none" xmlns="http://www.w3.org/2000/svg">
<path d="M254.77 176.504C303.279 176.504 342.069 217.706 342.069 266.631C342.069 291.321 334.418 310.386 321.144 323.287C307.849 336.206 288.345 343.496 263.589 343.496C215.413 343.496 175.818 296.798 175.818 247.512C175.818 222.868 183.548 205.392 196.762 193.984C210.099 182.47 229.751 176.504 254.77 176.504Z" stroke="#DABA72" stroke-width="10"/>
<path d="M253.008 142.203C321.465 142.203 376.083 200.319 376.083 269.202C376.083 303.87 365.33 330.868 346.459 349.206C327.569 367.563 299.975 377.797 265.246 377.797C197.123 377.797 141.517 311.915 141.517 242.671C141.517 208.049 152.396 183.207 171.251 166.929C190.229 150.545 218.016 142.203 253.008 142.203Z" stroke="#DABA72" stroke-width="10"/>
<path d="M251.247 107.902C339.651 107.902 410.097 182.932 410.097 271.772C410.097 316.419 396.241 351.349 371.775 375.126C347.289 398.921 311.606 412.098 266.903 412.098C178.833 412.098 107.216 327.031 107.216 237.831C107.216 193.23 121.243 161.023 145.74 139.875C170.359 118.62 206.281 107.902 251.247 107.902Z" stroke="#DABA72" stroke-width="10"/>
<path d="M250.171 73.6016C358.523 73.6016 444.797 165.545 444.797 274.342C444.797 328.968 427.838 371.831 397.776 401.045C367.695 430.278 323.922 446.398 269.246 446.398C161.229 446.398 73.6016 342.148 73.6016 232.99C73.6016 178.411 90.7762 138.839 120.914 112.82C151.175 86.6949 195.232 73.6016 250.171 73.6016Z" stroke="#DABA72" stroke-width="10"/>
<path d="M248.41 39.3008C376.708 39.3008 478.811 148.158 478.811 276.912C478.811 341.517 458.75 392.312 423.092 426.965C387.415 461.636 335.553 480.699 270.903 480.699C142.938 480.699 39.3008 357.265 39.3008 228.15C39.3008 163.592 59.6235 116.655 95.403 85.7653C131.305 54.7698 183.497 39.3008 248.41 39.3008Z" stroke="#DABA72" stroke-width="10"/>
<path d="M246.649 4.99999C394.894 4.99998 512.824 130.771 512.824 279.482C512.824 354.066 489.661 412.794 448.408 452.884C407.134 492.993 347.184 515 272.56 515C124.648 515 5.00002 372.382 5.00002 223.309C5.00001 148.773 28.4707 94.4706 69.8917 58.7107C111.436 22.8448 171.762 4.99999 246.649 4.99999Z" stroke="#DABA72" stroke-width="10"/>
</svg>
