<svg width="66" height="79" viewBox="0 0 66 79" fill="none" xmlns="http://www.w3.org/2000/svg">
<path fill-rule="evenodd" clip-rule="evenodd" d="M49.163 22.3813C42.8475 18.5273 37.4811 12.8441 37.4726 4.46908L37.4726 4.44904V0H28.5275L28.5274 4.44904L28.5275 4.46908C28.5189 12.8441 23.1525 18.5273 16.837 22.3813C13.7209 24.2829 10.5676 25.6053 8.17236 26.453C6.98223 26.8743 5.99825 27.1716 5.32495 27.3606C4.98877 27.455 4.73144 27.5219 4.56617 27.5634C4.48358 27.5842 4.42412 27.5986 4.38944 27.6069L4.35882 27.6141L4.35406 27.6152L0 28.5981L1.97974 37.2755L6.34138 36.2909L5.35151 31.9522C6.34138 36.2909 6.34483 36.2901 6.34483 36.2901L6.34893 36.2892L6.35903 36.2869L6.38682 36.2805L6.4722 36.2604C6.54215 36.2437 6.63794 36.2204 6.75786 36.1903C6.9976 36.13 7.33428 36.0421 7.75411 35.9243C8.59284 35.6889 9.7689 35.3325 11.1708 34.8363C12.1573 34.4872 13.2651 34.0655 14.453 33.5638V74.551V79H23.3981V74.551V56.6241H42.6019V74.551V79H51.547V74.551V33.5638C52.7349 34.0655 53.8427 34.4872 54.8292 34.8363C56.2311 35.3325 57.4072 35.6889 58.2459 35.9243C58.6657 36.0421 59.0024 36.13 59.2422 36.1903C59.3621 36.2204 59.4579 36.2437 59.5278 36.2604L59.6132 36.2805L59.641 36.2869L59.6511 36.2892L59.6552 36.2901C59.6552 36.2901 59.6586 36.2909 60.6485 31.9522L59.6586 36.2909L64.0203 37.2755L66 28.5981L61.6463 27.6153L61.6412 27.6141L61.6106 27.6069L61.5362 27.5889L61.4338 27.5634C61.2686 27.5219 61.0113 27.455 60.6751 27.3606C60.0018 27.1716 59.0178 26.8743 57.8277 26.453C55.4324 25.6053 52.2791 24.2829 49.163 22.3813ZM42.6019 47.726V28.7523C39.1398 26.3976 35.6424 23.2965 33 19.3231C30.3576 23.2965 26.8603 26.3976 23.3981 28.7523V47.726H42.6019Z" fill="#F44336"/>
</svg>
