<?xml version="1.0" encoding="utf-8"?>
<!-- Generator: Adobe Illustrator 22.1.0, SVG Export Plug-In . SVG Version: 6.00 Build 0)  -->
<svg version="1.1" id="Layer_1" xmlns="http://www.w3.org/2000/svg" xmlns:xlink="http://www.w3.org/1999/xlink" x="0px" y="0px"
	 viewBox="0 0 1691.8 396.1" style="enable-background:new 0 0 1691.8 396.1;" xml:space="preserve">
<title>logo</title>
<path d="M848.7,367.5c-48.1,0-100-1.3-149.9-3.7c-86.9-4.2-169.3-11.7-232-21c-77.2-11.5-124-25.5-139-41.6
	c-30.5-32.6-59.3-47.6-78.1-54.4c-4.6-1.7-9.4-2.6-14.3-2.6c-10.1,0-19.8,3.7-27.4,10.5c-39.4,35.3-74.5,53.2-104.1,53.2
	c-8.4,0-16.4-1.4-23.9-4.3c-5.8-2.2-11.2-5.1-16-8.8c-11.5-0.5-33.4-24-37.7-28.8l-0.1-0.1C1.6,236.8-7.5,206.2-1,175
	c5.1-24.2,18.7-43.8,29.3-56c11.6-13.4,23.2-22.4,26.9-24.2c2.5-1.2,5.2-1.8,8-1.8c3.3,0,6.7,0.9,9.9,2.6c2.1-1.1,4.4-2.2,6.9-3.1
	c7.4-2.8,15.4-4.2,23.7-4.2c29.7,0,64.7,17.9,104.2,53.3c7.6,6.7,17.4,10.4,27.5,10.4c4.8,0,9.6-0.8,14.1-2.5
	c18.8-6.9,47.7-21.9,78.1-54.4c15-16.1,61.8-30.1,139-41.6c62.7-9.4,145.2-16.8,232.1-21c50.2-2.4,102.2-3.7,150.4-3.7
	c72.7,0,200.2,3,237.7,23.2l0.1,0.1c3.6,2.2,9.7,6.7,9.7,12.9c0,1-0.2,2-0.5,2.9c-2,6.3-10.1,9.9-26.4,11.2
	c8.9,5.2,13.7,11.9,14.3,19.8c0.4,4.9-1.7,9.7-5.5,12.9c-4.3,3.8-11.2,6.1-21.1,7.2c2.3,2,3.9,4.2,5,6.5l548.8,13.8
	c9.1-38,27.8-59.6,42-71.1c14.8-11.9,28.7-16.2,31.9-16.5c0.3-0.1,0.7-0.1,1-0.1c2.3,0,4.4,1.3,5.4,3.3c2.3,4.3,3.3,13.3,3.3,28.3
	c0,18.8-1.8,41.2-2.6,50c-1.5,16.8-3.5,32.9-5.6,45.3c-1.6,9.2-3.2,15.8-4.8,19.9c1.6,4,3.2,10.5,4.8,19.9
	c2.1,12.4,4.1,28.5,5.6,45.3c0.8,8.8,2.6,31.2,2.6,50c0,14.3-1.1,23.8-3.3,28.3l0,0.1l-0.1,0.1c-1.1,1.9-3.1,3.1-5.3,3.1
	c-0.5,0-0.9-0.1-1.3-0.2c-0.1,0-14.7-3.2-31.4-16.7c-14.2-11.5-32.9-33.1-42-71.1l-548.8,13.8c-1.1,2.3-2.8,4.5-5.1,6.6
	c9.8,1.1,16.8,3.4,21,7.1c3.9,3.2,6,8,5.5,13c-0.6,7.9-5.3,14.5-14.1,19.7c16.5,1.4,24.3,4.9,26.3,11.3c0.3,0.8,0.4,1.8,0.4,2.8
	c0,7.6-8.7,12.4-9.7,12.9C1049.3,364.5,921.5,367.5,848.7,367.5z M235.4,231.9c6.3,0,12.4,1.1,18.4,3.3
	c20.1,7.3,50.7,23.2,82.8,57.5c11.7,12.5,53.1,25.1,116.5,35.5c64.9,10.6,150.1,18.7,246.5,23.4c52.6,2.5,103.4,3.8,151,3.8
	c119,0,205.3-8.2,230.8-21.8c1-0.6,1.9-1.3,2.5-1.9c-2.8-1.2-11-3.3-33.4-3.3c-7.2,0-15.4,0.2-24.4,0.7c-9.2,1.1-18.6,1.7-27.8,1.8
	c-3.2,0-5.8-2.5-6-5.7l0-0.2c0-3.2,2.5-5.9,5.6-6.1c10.5-0.8,19.6-1.4,27.9-1.8c28.8-3.6,45.8-11.1,46.5-20.6
	c0.1-1.2-0.3-2.3-1.1-2.9l-0.1-0.1c-2.1-1.8-8.1-4.8-25.3-4.8c-4.4,0-9.3,0.2-14.6,0.6c-3.4,0.9-7.4,1.8-12.5,2.8
	c-13.3,2.4-26.8,4-40.1,4.8c-0.1,0-0.2,0-0.4,0c-2.9,0-5.5-2.3-5.9-5.2c-0.4-3.1,1.6-6,4.7-6.6c17.4-3.6,35.1-6.2,52.6-7.7
	c12.4-3.4,18-6.7,20.6-9.2c-4.6-1.7-12.6-4.1-24.5-6.3c-17.3-3.1-37.9-4.7-61.2-4.7c-14.4,0-29.8,0.6-45.7,1.9
	c-86,6.6-287,11.9-369.4,13.9c-3,0.1-5.1,0.1-5.2,0.1c-3.3,0-5.9-2.6-5.9-5.9c0-3.4,2.6-6.1,5.8-6.1c0.4,0,2.1-0.1,4.9-0.1
	c82.3-2,283.1-7.3,368.7-13.9c16.5-1.3,32.4-1.9,47.1-1.9c61.2,0,88.4,10.9,94.7,13.9l556.5-14c2.9,0,5.4,2,6,4.8
	c4.4,20.7,14.7,49.5,38.7,68.9c6.5,5.4,13.7,9.7,21.3,12.7c1.6-11.4,1-36.5-1.5-65.2c-2.6-29.1-6.2-50.6-8.7-60.1
	c-24.5,4.1-150.6,10.1-375.4,17.8c-177.1,6-363.8,11.4-366.1,11.4c-1.5,0-3.1-0.7-4.3-1.8c-5.1-3-19.5-13.6-19.5-36.4
	c0-22.8,14.6-32,19.9-34.6c1-0.9,2.4-1.4,3.9-1.4l0.2,0c0.4,0,7.7,0.2,18.7,0.6c49.3,1.4,199.4,5.8,347.2,10.8
	c224.9,7.7,351,13.7,375.4,17.8c2.6-9.3,6-30.4,8.7-60.1c2.5-28.5,3.1-53.8,1.6-65.5c-7.8,3.1-14.9,7.4-21.3,12.6
	c-13.3,10.8-30.7,31.4-38.7,68.9c-0.6,2.8-3.1,4.8-5.9,4.8l-556.5-14c-6.3,3-33.5,13.9-94.7,13.9c-14.7,0-30.6-0.6-47.1-1.9
	c-102.5-7.9-371.6-14-373.6-14c-3.3,0-5.9-2.7-5.9-6l0-0.3c0.2-3.2,2.9-5.7,6.1-5.7c0,0,2,0,4.9,0.1c82.4,2,283.5,7.3,369.5,13.9
	c16,1.2,31.4,1.8,45.8,1.8c29.3,0,49.4-2.5,61.1-4.7c11.9-2.1,19.9-4.6,24.5-6.2c-2.5-2.4-8.1-5.9-20.6-9.2
	c-17.5-1.4-35.2-4-52.6-7.7c-3-0.6-5-3.4-4.6-6.6c0.4-3,2.9-5.2,5.9-5.2c0.1,0,0.2,0,0.4,0c13.5,0.8,26.9,2.4,40.1,4.8
	c3.9,0.7,7.9,1.6,12.6,2.8c5.3,0.4,10.2,0.6,14.6,0.6c17.1,0,23.2-3,25.3-4.8c0.9-0.7,1.4-1.9,1.3-2.9c-0.7-9.6-17.6-17.1-46.5-20.7
	c-8.3-0.4-17.4-1-28-1.8c-1.5-0.1-3-0.8-4-2c-1.1-1.2-1.6-2.7-1.5-4.3c0.2-3.2,2.8-5.7,6-5.7c9.3,0.1,18.6,0.7,27.8,1.8
	c8.9,0.4,17.1,0.6,24.2,0.6c22.6,0,30.8-2.1,33.6-3.3c-0.7-0.6-1.6-1.3-2.7-1.9c-25.4-13.7-111.7-21.8-230.7-21.8
	c-47.6,0-98.4,1.3-151,3.8c-96.4,4.7-181.6,12.7-246.5,23.4c-63.4,10.4-104.8,23-116.4,35.5c-32,34.3-62.7,50.2-82.8,57.5
	c-5.9,2.2-12.1,3.3-18.3,3.3c-13.1,0-25.7-4.8-35.4-13.6c-37.2-33.3-69.5-50.2-96.1-50.2c-6.9,0-13.5,1.2-19.7,3.5
	c-0.5,0.2-1,0.4-1.5,0.6c1.6,2.2,2.9,4.5,3.9,7c1.3,3,1.2,6.1-0.2,9c-2.4,4.7-8.2,8-14.7,10.4c2.8,1.3,5.9,3.2,9.1,6
	c2.9,2.5,4.3,5.6,4,9.2c-0.7,7.9-10.2,16.6-18,22.4c4.7,1.2,10.2,4.5,15.1,12.6c3.2,5.3,3.8,10.2,1.8,14.5
	c-2.5,5.4-8.5,8.6-13.5,10.4c5.9,4.2,8.3,9.8,9.3,14.3c2.5,11.5-2.5,23.5-8.4,29.1c-3.3,3.1-7.4,4.6-12.2,4.6c-0.7,0-1.4,0-2-0.1
	c7.2,8.1,16,20.5,15.1,32.2c3.9,2.7,8,4.9,12.2,6.5c6.1,2.3,12.8,3.5,19.7,3.5c26.6,0,58.9-16.9,96.1-50.2
	C209.7,236.7,222.3,231.9,235.4,231.9z M930.6,173c-4.3,2.3-12.9,8.8-12.9,24c0,15.8,9.4,23.6,13.3,26.2
	c197.6-5.6,563.5-17.1,693.8-25.1C1494.5,190.1,1128.2,178.6,930.6,173z"/>
<path d="M1655.1,70.3c-14.2,11.5-32.8,33.2-41.5,71.8l-553.2-13.9c-1.4-4.5-5.3-8.4-11.9-11.9c12.2-0.3,22.6-2.2,28.1-7
	c3.1-2.6,4.7-6.5,4.4-10.4c-0.7-9.6-8.7-17.1-23.8-22.4c28.5-0.6,34.7-5.3,36.1-9.8c0.2-0.6,0.3-1.3,0.3-1.9c0-5.3-6.7-9.4-8.2-10.3
	C1041,30.6,853.9,27.9,698.9,35.4c-157.7,7.6-337.4,27.8-369,61.7c-30.8,32.9-60.1,48.2-79.3,55.2c-15.3,5.6-32.5,2.3-44.7-8.5
	C156.1,99.2,114,82.9,81,95.3c-2.8,1-5.4,2.3-8,3.7c-5.4-3.4-11.4-4-16.5-1.5C47.4,102-45.6,176,28.4,264c0,0,26.2,28.9,36.5,27.8
	c4.9,3.8,10.3,6.8,16.1,9c33.1,12.5,75.1-3.8,124.9-48.4c12.2-10.9,29.3-14.2,44.7-8.5c19.2,7,48.5,22.3,79.3,55.2
	c31.7,33.9,211.4,54.1,369,61.7c155.1,7.5,342.2,4.7,386.6-19.1c1.5-0.8,8.1-4.9,8.1-10.3c0-0.7-0.1-1.3-0.3-1.9
	c-1.4-4.6-7.6-9.2-36.1-9.8c15.1-5.2,23.1-12.8,23.8-22.4c0.4-4-1.3-7.9-4.4-10.4c-5.4-4.7-15.9-6.6-28-7
	c6.5-3.4,10.5-7.4,11.9-11.9l553.2-13.9c8.7,38.6,27.3,60.3,41.5,71.8c15.9,12.8,29.7,16,30.2,16.1c1.3,0.3,2.7-0.3,3.4-1.5
	c2.2-4.5,3-15,3-27c0-19.6-2-43-2.6-49.7c-1.5-16.9-3.5-32.9-5.6-45.1c-2-11.5-3.7-17.4-5.1-20.4c1.4-3.1,3.1-8.9,5.1-20.4
	c2.1-12.2,4.1-28.2,5.6-45.1c0.6-6.7,2.6-30.1,2.6-49.7c0-12-0.7-22.6-3-27c-0.6-1.2-2-1.9-3.3-1.6
	C1684.8,54.4,1671,57.5,1655.1,70.3z M1663.7,198.1c-72,8.2-544.9,22.8-733.5,28.1c-3.5-2.1-15.5-10.7-15.5-29.2s11.7-25.3,15.2-27
	C1118.4,175.3,1591.7,189.9,1663.7,198.1z M1683.2,130.3c-2.8,31.4-6.7,54.9-9.6,63.3c-8-2.2-52.7-7.2-377.6-18.3
	c-181.9-6.2-364.2-11.3-366-11.4c-0.8,0-1.7,0.3-2.2,0.9c-4.3,2-18.6,10.3-18.6,32.1s14.2,31.6,18.4,34c0.6,0.7,1.5,1.2,2.4,1.2
	c1.8,0,184.1-5.2,366-11.4c324.9-11.1,369.6-16.1,377.6-18.3c2.8,8.4,6.8,31.9,9.6,63.3c2.9,32.7,3.2,60,0.8,69.5
	c-9.3-3.2-17.9-8.1-25.5-14.4c-24.8-20.1-35.2-49.5-39.7-70.6c-0.3-1.4-1.6-2.4-3-2.4l-557.2,14c-5.8-2.9-44-19.4-140.9-12
	c-102.7,7.9-371.1,13.9-373.8,14c-1.6,0-2.9,1.4-2.9,3v0.1c0,1.7,1.4,3,3.1,2.9l0,0c2.7-0.1,271.3-6.1,374.2-14
	c53-4.1,87.8-0.7,107.7,2.9c15.8,2.8,24.9,6.2,28.6,7.8c-2.3,5.7-12.1,10.2-24.7,13.6c-17.6,1.5-35.2,4.1-52.5,7.7
	c-1.5,0.3-2.5,1.8-2.3,3.3s1.6,2.7,3.1,2.6c13.3-0.8,26.5-2.4,39.7-4.8c4.6-0.9,8.8-1.8,12.6-2.8c18.5-1.4,35.8-0.7,42.3,4.9
	c1.7,1.3,2.5,3.4,2.3,5.5c-1,14-26.4,20.6-49.2,23.4c-8.3,0.4-17.6,1-28,1.8c-1.6,0.1-2.8,1.5-2.8,3.1c0.1,1.6,1.4,2.9,3,2.9
	c9.2-0.1,18.4-0.7,27.6-1.8c57.7-2.8,61.7,4.1,62,5s-2.3,3.6-5,5.2c-37.2,20-194.9,27.5-383.4,18.4c-196.6-9.5-339.9-33-365-59.8
	c-31.6-33.8-61.8-49.5-81.6-56.7c-17.4-6.4-36.9-2.7-50.7,9.7c-48,43-88,58.9-118.8,47.3c-5.1-1.9-9.9-4.6-14.3-7.9V287
	c3-18.2-23-40.2-23-40.2s14,8.6,23.2,0s14.8-34.6-7.2-42.1c0,0,28.5-4.5,17.5-22.5s-24.2-10-24.2-10s37.2-22,23.7-33.5
	c-8.2-7-15.2-8.1-19.5-7.8c9.1-2,29.2-7.8,24.5-18.7c-1.4-3.4-3.4-6.6-5.9-9.3c1.7-0.8,3.4-1.6,5.2-2.3C114,89,154,104.9,202,147.9
	c13.8,12.4,33.3,16.1,50.7,9.7c19.8-7.2,50-22.9,81.6-56.7c25.1-26.8,168.3-50.3,365-59.8c188.6-9.1,346.2-1.6,383.4,18.4
	c2.8,1.6,5.4,4.2,5.1,5.2s-4.3,7.7-62,5c-9.2-1.1-18.4-1.7-27.6-1.8c-1.6,0-2.9,1.3-3,2.9s1.2,3,2.8,3.1c10.4,0.8,19.7,1.4,28,1.8
	c22.8,2.8,48.2,9.4,49.2,23.4c0.2,2.1-0.7,4.2-2.3,5.5c-6.5,5.6-23.8,6.3-42.3,4.9c-3.8-1-8-2-12.6-2.8c-13.1-2.4-26.4-4-39.7-4.8
	c-1.6-0.1-2.9,1.1-3.1,2.6c-0.2,1.6,0.8,3,2.3,3.3c17.3,3.7,34.9,6.3,52.5,7.7c12.6,3.4,22.4,8,24.7,13.6c-3.7,1.6-12.8,5-28.6,7.8
	c-19.8,3.6-54.6,6.9-107.7,2.9c-102.9-7.9-371.5-13.9-374.2-14c-1.7,0-3,1.3-3.1,2.9l0,0v0.1c0,1.6,1.3,3,2.9,3
	c2.7,0,271.1,6.1,373.8,14c96.9,7.4,135.1-9.1,140.9-12l557.2,14c1.4,0,2.7-1,3-2.4c8.1-38.2,26-59.5,39.7-70.6
	c7.6-6.3,16.2-11.1,25.5-14.4C1686.4,70.3,1686.1,97.7,1683.2,130.3L1683.2,130.3z"/>
<path d="M97.8,180c-5.3,0-9.6-4.3-9.6-9.6s4.3-9.6,9.6-9.6s9.6,4.3,9.6,9.6S103.1,180,97.8,180z"/>
<circle cx="97.8" cy="170.4" r="6.6"/>
<path d="M95.2,229.6c-5.3,0-9.6-4.3-9.6-9.6c0-5.3,4.3-9.6,9.6-9.6s9.6,4.3,9.6,9.6C104.8,225.3,100.5,229.6,95.2,229.6z"/>
<circle cx="95.2" cy="220" r="6.6"/>
<path d="M128.9,218.7c-0.9,0-1.8-0.2-2.6-0.6c-2.9-1.4-4.2-4.9-2.9-7.9c3.5-8.8,3.7-19,0.6-28.1c0,0-0.1,0-0.1,0
	c-1.6,0-3.2-0.3-4.8-0.7c-3.9-1.3-7.1-4-8.9-7.6c-0.7-1.4-0.9-3.1-0.4-4.6c0.5-1.5,1.6-2.7,3-3.4c0.9-0.4,1.8-0.7,2.7-0.7
	c2.3,0,4.4,1.3,5.3,3.4c0.3,0.7,1,1.3,1.8,1.5l0.1,0l0.1,0c0.2,0.1,0.5,0.1,0.8,0.1c0.5,0,1-0.1,1.5-0.4c0.7-0.3,1.3-1,1.5-1.8
	c0.3-0.8,0.2-1.7-0.1-2.5c-1.4-2.8-0.3-6.4,2.5-8c0.9-0.5,1.9-0.8,2.9-0.8c2.2,0,4.3,1.3,5.3,3.3c1.1,2.1,1.6,4.3,1.6,6.7
	c0,1.6-0.2,3.2-0.7,4.8c-0.6,2.1-1.7,4-3.3,5.6c2.1,5.9,3.2,12.1,3.2,18.2c0.1,6.6-1.2,13.2-3.8,19.7l-0.1,0.1
	C133.3,217.3,131.2,218.7,128.9,218.7z"/>
<path d="M129.4,164.2c0.7,1.5,0.8,3.2,0.3,4.7c-0.5,1.6-1.6,2.9-3.1,3.6c-1.5,0.7-3.2,0.9-4.7,0.3c-1.6-0.5-2.9-1.6-3.6-3.1
	s-2.5-2.1-4-1.3c-1.5,0.7-2.1,2.5-1.3,4c1.4,2.9,4,5.1,7.1,6.1c1.9,0.6,4,0.8,6,0.4c4.1,10.4,4.2,22.1,0.1,32.5
	c-0.7,1.5-0.1,3.3,1.4,4l0,0c1.5,0.7,3.3,0.1,4-1.4l0,0c2.4-5.9,3.7-12.2,3.6-18.6c0-6.5-1.3-13-3.7-19c1.8-1.5,3.2-3.4,3.9-5.7
	c0.4-1.3,0.6-2.6,0.6-3.9c0-1.9-0.4-3.7-1.3-5.4c-0.7-1.5-2.5-2.1-4-1.3C129.3,160.9,128.6,162.7,129.4,164.2L129.4,164.2z"/>
</svg>
