<svg id="Layer_1" data-name="Layer 1" xmlns="http://www.w3.org/2000/svg" xmlns:xlink="http://www.w3.org/1999/xlink" viewBox="0 0 873.71 908.79"><defs><style>.cls-1,.cls-4{fill:none;}.cls-2{clip-path:url(#clip-path);}.cls-3{fill:#231f20;}.cls-4{stroke:#231f20;stroke-linecap:round;stroke-linejoin:round;stroke-width:18.38px;}.cls-5{clip-path:url(#clip-path-2);}</style><clipPath id="clip-path" transform="translate(-88.56 44.29)"><ellipse class="cls-1" cx="430.02" cy="500.68" rx="332.27" ry="356"/></clipPath><clipPath id="clip-path-2" transform="translate(-88.56 44.29)"><ellipse class="cls-1" cx="496.19" cy="490.44" rx="134.2" ry="82.47" transform="translate(-105.66 137.58) rotate(-14.28)"/></clipPath></defs><title>sasi</title><g class="cls-2"><ellipse class="cls-3" cx="362.52" cy="199.16" rx="291.27" ry="199.16"/><path class="cls-3" d="M924.1,84.4c-61.46-54.07-175.4-25-254.49,64.86s-93.38,206.6-31.91,260.68c21.09,18.55,32.35,21.83,62.27,21.72,0,0,27.73-62.52,41.5-65,51.81-9.32,109.68,25.08,150.72-21.57C971.28,255.19,985.57,138.48,924.1,84.4Z" transform="translate(-88.56 44.29)"/></g><path class="cls-4" d="M758.05,556.32c-25.46,169.52-162.64,299-328,299-183.51,0-332.27-159.39-332.27-356s148.76-356,332.27-356c141.29,0,262,94.49,310,227.7" transform="translate(-88.56 44.29)"/><g class="cls-5"><circle class="cls-3" cx="522.06" cy="486.14" r="122.87"/></g><ellipse class="cls-4" cx="496.19" cy="490.44" rx="134.2" ry="82.47" transform="translate(-194.22 181.86) rotate(-14.28)"/><path class="cls-4" d="M219.12,523.82c-24.86,22.13-69.77,29.92-118.61,20" transform="translate(-88.56 44.29)"/><path class="cls-4" d="M339.22,575.65A50.56,50.56,0,0,1,273.56,604" transform="translate(-88.56 44.29)"/><path class="cls-4" d="M694.54,437.81a104.88,104.88,0,1,1,63.69,118.54" transform="translate(-88.56 44.29)"/><path class="cls-4" d="M757.19,451.2A50.57,50.57,0,0,1,825,428.37" transform="translate(-88.56 44.29)"/><line class="cls-4" x1="88.85" y1="495.49" x2="130.56" y2="503.24"/></svg>